<?xml version="1.0" encoding="UTF-8"?>
<svg viewBox="0 0 299.28125 199.9575" xmlns="http://www.w3.org/2000/svg">
 <defs>
  <linearGradient id="a" x1="145.51" x2="346.39" gradientUnits="userSpaceOnUse">
   <stop offset="0"/>
   <stop stop-color="#fff" stop-opacity=".2028" offset=".21087"/>
   <stop stop-opacity="0" offset="1"/>
  </linearGradient>
 </defs>
 <g transform="translate(-144.88 -178.01)">
  <path d="m144.88 228.34v100h0.0312c0.59548 27.444 67.321 49.625 149.59 49.625s149.03-22.181 149.62-49.625h0.0312v-100h-299.28z" fill="#333"/>
  <path transform="matrix(1.359 0 0 1.1785 -50.064 -50.305)" d="m363.65 236.16a110.11 42.426 0 1 1 -220.21 0 110.11 42.426 0 1 1 220.21 0z"/>
  <path transform="matrix(1.063 0 0 .85411 25 26.306)" d="m363.65 236.16a110.11 42.426 0 1 1 -220.21 0 110.11 42.426 0 1 1 220.21 0z" stroke="#393939" stroke-width="5"/>
  <path transform="matrix(1.0301 0 0 .81996 33.34 35.819)" d="m363.65 236.16a110.11 42.426 0 1 1 -220.21 0 110.11 42.426 0 1 1 220.21 0z" stroke="#272d39" stroke-width="5.1839"/>
  <path d="m272.26 376.64c-65.934-3.8162-114.87-19.811-125.05-40.868l-1.706-3.5307 0.0388-47.664c0.0254-31.133 0.27956-47.077 0.73293-45.972 2.6679 6.5016 12.483 14.608 24.728 20.423 53.133 25.233 163.69 28.467 230.06 6.7295 21.084-6.9052 37.115-17.229 41.486-26.715 1.2729-2.763 1.3028-1.597 1.1659 45.535l-0.14053 48.37-1.925 3.5547c-9.9196 18.318-49.199 32.822-104.2 38.477-13.645 1.4029-52.537 2.394-65.195 1.6614z" fill="url(#a)"/>
 </g>
</svg>
